<?xml version="1.0" standalone="no"?>
<!DOCTYPE svg PUBLIC "-//W3C//DTD SVG 20010904//EN"
 "http://www.w3.org/TR/2001/REC-SVG-20010904/DTD/svg10.dtd">
<svg version="1.0" xmlns="http://www.w3.org/2000/svg"
 width="1280.000000pt" height="537.000000pt" viewBox="0 0 1280.000000 537.000000"
 preserveAspectRatio="xMidYMid meet">

<g transform="translate(0.000000,537.000000) scale(0.100000,-0.100000)"
fill="#000000" stroke="none">
<path d="M4095 5360 c-314 -15 -452 -47 -522 -123 -139 -151 -578 -781 -1222
-1752 -398 -601 -807 -1208 -854 -1269 l-31 -38 -10 23 c-15 32 -14 1074 1
1849 12 591 5 1054 -16 1144 -12 48 -38 85 -77 108 -56 33 -157 40 -569 40
-513 0 -636 -15 -704 -83 -55 -55 -69 -180 -81 -759 -12 -561 -12 -3075 0
-3640 15 -695 28 -766 149 -800 131 -37 225 -45 566 -44 311 0 348 2 439 21
120 27 182 62 278 158 144 144 260 309 1099 1563 537 801 880 1305 949 1392
l20 25 0 -135 c0 -179 -24 -795 -57 -1480 -33 -687 -37 -1196 -11 -1309 33
-141 98 -209 222 -230 79 -14 560 -14 732 -1 289 23 331 38 450 163 201 209
541 676 2173 2980 l814 1149 371 -6 c204 -4 691 -11 1081 -17 1565 -21 1742
-51 1933 -317 87 -123 119 -265 109 -492 -28 -622 -398 -1493 -790 -1855 -39
-37 -112 -98 -162 -135 -328 -245 -629 -324 -1380 -361 -264 -13 -1060 -18
-1071 -7 -8 9 74 245 442 1271 428 1192 642 1812 631 1824 -3 3 -10 3 -15 -1
-23 -14 -199 -252 -499 -676 -181 -256 -584 -823 -894 -1260 -992 -1395 -1192
-1688 -1309 -1919 -54 -107 -62 -143 -50 -232 5 -41 10 -77 10 -81 0 -12 2769
-9 3030 2 379 17 531 39 797 116 1024 296 1746 901 2231 1869 180 360 365 883
435 1235 53 262 62 342 62 590 0 203 -3 250 -23 345 -55 275 -157 480 -322
646 -93 94 -193 165 -330 234 -297 149 -541 201 -1105 235 -82 5 -979 14
-1993 20 l-1843 11 -101 -87 c-187 -164 -387 -430 -983 -1309 -560 -827 -971
-1426 -1163 -1693 -68 -95 -99 -129 -106 -122 -15 16 -12 164 13 595 22 397
86 1700 96 1980 7 199 -6 385 -34 476 -24 76 -72 129 -141 155 -54 20 -374 27
-665 14z"/>
</g>
</svg>
